<?xml version="1.0" encoding="utf-8"?>
<!-- Generator: Adobe Illustrator 17.1.0, SVG Export Plug-In . SVG Version: 6.00 Build 0)  -->
<!DOCTYPE svg PUBLIC "-//W3C//DTD SVG 1.1//EN" "http://www.w3.org/Graphics/SVG/1.1/DTD/svg11.dtd">
<svg version="1.1" id="Layer_1" xmlns="http://www.w3.org/2000/svg" xmlns:xlink="http://www.w3.org/1999/xlink" x="0px" y="0px"
	 width="64px" height="64px" viewBox="0 0 64 64" enable-background="new 0 0 64 64" xml:space="preserve">
<g>
	<g>
		<g>
			
				<ellipse transform="matrix(7.331899e-002 -0.9973 0.9973 7.331899e-002 -31.4964 66.5063)" fill="none" stroke="#333333" stroke-width="2" stroke-linecap="round" stroke-linejoin="round" stroke-miterlimit="10" cx="20" cy="50.2" rx="4.9" ry="6.5"/>
			<path fill="none" stroke="#333333" stroke-width="2" stroke-linecap="round" stroke-linejoin="round" stroke-miterlimit="10" d="
				M13.9,49.5c0,0,3.8,2.1,5.8,1.1c2-1,3.5-0.6,6.7,0.9"/>
		</g>
		<g>
			<path fill="none" stroke="#333333" stroke-width="2" stroke-linecap="round" stroke-linejoin="round" stroke-miterlimit="10" d="
				M19.7,45.2c-0.8-2.3,0.7-5,3.6-6.6c3.1-1.8,6.8-1.3,8.1,1c1.3,2.4-0.1,5.7-3.2,7.5c-0.8,0.4-1.6,0.8-2.4,0.9"/>
			<path fill="none" stroke="#333333" stroke-width="2" stroke-linecap="round" stroke-linejoin="round" stroke-miterlimit="10" d="
				M31.2,40c0,0-4.3,0.4-5.4,2.4c-1.1,2-2.4,2.3-5.9,2.9"/>
		</g>
		<g>
			
				<ellipse transform="matrix(0.4963 0.8681 -0.8681 0.4963 41.564 4.8246)" fill="none" stroke="#333333" stroke-width="2" stroke-linecap="round" stroke-linejoin="round" stroke-miterlimit="10" cx="16.6" cy="38.2" rx="4.5" ry="6"/>
			<path fill="none" stroke="#333333" stroke-width="2" stroke-linecap="round" stroke-linejoin="round" stroke-miterlimit="10" d="
				M21.7,35.6c0,0-3.9,0.4-5,2.2c-1,1.8-2.3,2.2-5.6,2.8"/>
		</g>
		<g>
			
				<ellipse transform="matrix(0.1069 0.9943 -0.9943 0.1069 38.6428 5.9513)" fill="none" stroke="#333333" stroke-width="2" stroke-linecap="round" stroke-linejoin="round" stroke-miterlimit="10" cx="16" cy="24.5" rx="4.5" ry="6"/>
			<path fill="none" stroke="#333333" stroke-width="2" stroke-linecap="round" stroke-linejoin="round" stroke-miterlimit="10" d="
				M21.7,24.1c0,0-3.8-1.2-5.4,0c-1.7,1.3-3,1.1-6.2,0.3"/>
		</g>
		<g>
			
				<ellipse transform="matrix(0.7972 0.6037 -0.6037 0.7972 38.325 -18.1379)" fill="none" stroke="#333333" stroke-width="2" stroke-linecap="round" stroke-linejoin="round" stroke-miterlimit="10" cx="46.2" cy="48" rx="4.5" ry="6"/>
			<path fill="none" stroke="#333333" stroke-width="2" stroke-linecap="round" stroke-linejoin="round" stroke-miterlimit="10" d="
				M49.8,43.6c0,0-3.5,1.9-3.7,4c-0.2,2.1-1.3,3-4,4.7"/>
		</g>
	</g>
	
		<line fill="none" stroke="#333333" stroke-width="2" stroke-linecap="round" stroke-linejoin="round" stroke-miterlimit="10" x1="14.5" y1="43.1" x2="18" y2="45.5"/>
	<path fill="none" stroke="#333333" stroke-width="2" stroke-linecap="round" stroke-linejoin="round" stroke-miterlimit="10" d="
		M26.5,51.1l4.5,3l15.4-17.8c3.7-5.5,2.5-11.6-3-15.2l-0.6-0.4c-5.5-3.7-13-2.2-16.6,3.3L20,33.4"/>
	
		<polyline fill="none" stroke="#333333" stroke-width="2" stroke-linecap="round" stroke-linejoin="round" stroke-miterlimit="10" points="
		14.5,43.1 14.5,43.1 18,45.5 	"/>
	<path fill="none" stroke="#333333" stroke-width="2" stroke-linecap="round" stroke-linejoin="round" stroke-miterlimit="10" d="
		M26.9,51.4l3.4,2.3l10-14.9c2.9-4.4,1.7-10.4-2.7-13.4l-0.4-0.3c-4.4-2.9-10.4-1.7-13.4,2.7L20,33.4"/>
	<path fill="none" stroke="#333333" stroke-width="2" stroke-linecap="round" stroke-linejoin="round" stroke-miterlimit="10" d="
		M45.4,22.6c0,0,7.5-6.4,8.3-9c0.8-2.6-1.2-4-1.2-4s-1.9-1.6-4.2,0c-2.3,1.6-6.1,10.7-6.1,10.7"/>
</g>
</svg>
