<?xml version="1.0" encoding="utf-8"?>
<!-- Generator: Adobe Illustrator 17.1.0, SVG Export Plug-In . SVG Version: 6.00 Build 0)  -->
<!DOCTYPE svg PUBLIC "-//W3C//DTD SVG 1.1//EN" "http://www.w3.org/Graphics/SVG/1.1/DTD/svg11.dtd">
<svg version="1.1" id="Layer_1" xmlns="http://www.w3.org/2000/svg" xmlns:xlink="http://www.w3.org/1999/xlink" x="0px" y="0px"
	 width="64px" height="64px" viewBox="0 0 64 64" enable-background="new 0 0 64 64" xml:space="preserve">
<g>
	<path fill="none" stroke="#333333" stroke-width="2" stroke-linecap="round" stroke-linejoin="round" stroke-miterlimit="10" d="
		M29.4,53.4l8.5,0c1,0,1.9-0.8,2-1.8l3.3-31.2l-13.7,0l-13.7,0l3.2,31.2c0.1,1,1,1.8,2,1.8L29.4,53.4z"/>
	<path fill="none" stroke="#333333" stroke-width="2" stroke-linecap="round" stroke-linejoin="round" stroke-miterlimit="10" d="
		M43.2,13.2c-3.8,0-6.9,2.9-6.9,6.7c0,0.1,0,0.2,0,0.2l6.8,0l-0.7,6.7c0.2,0,0.5,0.1,0.7,0.1c3.8,0,6.9-3.1,6.9-6.9
		S47,13.2,43.2,13.2z"/>
	<g>
		<path fill="none" stroke="#333333" stroke-width="2" stroke-linecap="round" stroke-linejoin="round" stroke-miterlimit="10" d="
			M31.7,47.2l-3,1.2c-1,0.4-2.2-0.1-2.6-1.1l-1.2-3c-0.4-1,0.1-2.2,1.1-2.6l3-1.2c1-0.4,2.2,0.1,2.6,1.1l1.2,3
			C33.3,45.7,32.8,46.8,31.7,47.2z"/>
		<path fill="none" stroke="#333333" stroke-width="2" stroke-linecap="round" stroke-linejoin="round" stroke-miterlimit="10" d="
			M34.6,39.7l-2.9-1.3c-1-0.5-1.4-1.6-1-2.7l1.3-2.9c0.5-1,1.6-1.4,2.7-1l2.9,1.3c1,0.5,1.4,1.6,1,2.7l-1.3,2.9
			C36.8,39.7,35.6,40.1,34.6,39.7z"/>
		<path fill="none" stroke="#333333" stroke-width="2" stroke-linecap="round" stroke-linejoin="round" stroke-miterlimit="10" d="
			M22.8,33l-1-3c-0.4-1,0.2-2.2,1.2-2.5l3-1c1-0.4,2.2,0.2,2.5,1.2l1,3c0.4,1-0.2,2.2-1.2,2.5l-3,1C24.3,34.6,23.1,34,22.8,33z"/>
	</g>
	
		<polyline fill="none" stroke="#333333" stroke-width="2" stroke-linecap="round" stroke-linejoin="round" stroke-miterlimit="10" points="
		13.9,13.2 20.4,10.6 26,26.4 	"/>
</g>
</svg>
