<?xml version="1.0" encoding="utf-8"?>
<!-- Generator: Adobe Illustrator 17.1.0, SVG Export Plug-In . SVG Version: 6.00 Build 0)  -->
<!DOCTYPE svg PUBLIC "-//W3C//DTD SVG 1.1//EN" "http://www.w3.org/Graphics/SVG/1.1/DTD/svg11.dtd">
<svg version="1.1" id="Layer_1" xmlns="http://www.w3.org/2000/svg" xmlns:xlink="http://www.w3.org/1999/xlink" x="0px" y="0px"
	 width="64px" height="64px" viewBox="0 0 64 64" enable-background="new 0 0 64 64" xml:space="preserve">
<g>
	<path fill="none" stroke="#fff" stroke-width="2" stroke-linecap="round" stroke-linejoin="round" stroke-miterlimit="10" d="
		M32,35.7L32,35.7c-4.7,0-8.5-3.8-8.5-8.5v-9.7c0-4.7,3.8-8.5,8.5-8.5l0,0c4.7,0,8.5,3.8,8.5,8.5v9.7C40.5,31.9,36.7,35.7,32,35.7z"
		/>
	<g>
		<path fill="#fff" d="M30.3,9.2c0,0.1,0,0.1,0,0.2c0,4.5-2.8,8.4-6.8,9.9v-1.8C23.5,13.4,26.5,10,30.3,9.2z"/>
		<path fill="#fff" d="M36.4,18.9c-4.8,0-8.8-3.2-10.1-7.6c1.5-1.4,3.5-2.3,5.8-2.3h0c4.7,0,8.5,3.8,8.5,8.5v0.6
			C39.2,18.6,37.8,18.9,36.4,18.9z"/>
	</g>
	<path fill="none" stroke="#fff" stroke-width="2" stroke-linecap="round" stroke-linejoin="round" stroke-miterlimit="10" d="
		M47.3,54.9H17.1c-0.6,0-1-0.4-1-1v-2.2c0-8.9,7.2-16.1,16.1-16.1l0,0c8.9,0,16.1,7.2,16.1,16.1v2.2C48.3,54.5,47.8,54.9,47.3,54.9z
		"/>
	<circle fill="#fff" cx="27.9" cy="23.1" r="1.1"/>
	<circle fill="#fff" cx="36.2" cy="23.1" r="1.1"/>
	<path fill="none" stroke="#fff" stroke-width="2" stroke-linecap="round" stroke-linejoin="round" stroke-miterlimit="10" d="
		M36.2,37.1c0,0-0.4,3.9-4.2,3.9c-3.8,0-4.2-3.9-4.2-3.9"/>
	
		<path fill="#fff" stroke="#fff" stroke-width="2" stroke-linecap="round" stroke-linejoin="round" stroke-miterlimit="10" d="
		M24.3,14c0,0-3.2,4.2-4.4,17.3c-0.1,1.2-1.1,2.2-2.3,2.1c-1-0.1-2-0.9-1.5-3.6c0,0-7.8,9.5,7.5,8.4l5.5-3c0,0-5.7-2.6-6.2-4.4
		C21.8,26.5,24.3,14,24.3,14z"/>
	
		<path fill="#fff" stroke="#fff" stroke-width="2" stroke-linecap="round" stroke-linejoin="round" stroke-miterlimit="10" d="
		M39.7,14c0,0,3.2,4.2,4.4,17.3c0.1,1.2,1.1,2.2,2.3,2.1c1-0.1,2-0.9,1.5-3.6c0,0,7.8,9.5-7.5,8.4l-5.5-3c0,0,5.7-2.6,6.2-4.4
		C42.2,26.5,39.7,14,39.7,14z"/>
</g>
</svg>
